<?xml version="1.0" encoding="UTF-8" standalone="no"?>
<!-- Created with Inkscape (http://www.inkscape.org/) -->

<svg
   width="60.040066mm"
   height="50.192963mm"
   viewBox="0 0 60.040066 50.192963"
   version="1.1"
   id="svg5"
   xml:space="preserve"
   xmlns="http://www.w3.org/2000/svg"
   xmlns:svg="http://www.w3.org/2000/svg"><defs
     id="defs2" /><g
     id="layer1"
     transform="translate(-29.140668,-38.4952)"><g
       id="g211"
       transform="matrix(0.28222222,0,0,0.28222222,25.284283,94.205089)"><g
         id="layer1-6"
         style="display:inline"
         transform="translate(-353.13777,-688.77283)"><path
           style="color:#000000;font-style:normal;font-variant:normal;font-weight:normal;font-stretch:normal;font-size:medium;line-height:normal;font-family:sans-serif;font-variant-ligatures:normal;font-variant-position:normal;font-variant-caps:normal;font-variant-numeric:normal;font-variant-alternates:normal;font-feature-settings:normal;text-indent:0;text-align:start;text-decoration:none;text-decoration-line:none;text-decoration-style:solid;text-decoration-color:#000000;letter-spacing:normal;word-spacing:normal;text-transform:none;writing-mode:lr-tb;direction:ltr;text-orientation:mixed;dominant-baseline:auto;baseline-shift:baseline;text-anchor:start;white-space:normal;shape-padding:0;clip-rule:nonzero;display:inline;overflow:visible;visibility:visible;opacity:1;isolation:auto;mix-blend-mode:normal;color-interpolation:sRGB;color-interpolation-filters:linearRGB;solid-color:#000000;solid-opacity:1;vector-effect:none;fill-opacity:1;fill-rule:nonzero;stroke:#000000;stroke-width:23.4375;stroke-linecap:butt;stroke-linejoin:round;stroke-miterlimit:4;stroke-dasharray:none;stroke-dashoffset:0;stroke-opacity:1;color-rendering:auto;image-rendering:auto;shape-rendering:auto;text-rendering:auto;enable-background:accumulate"
           d="m 414.3957,503.09466 c -8.89515,0.0258 -17.09356,2.26972 -23.38068,6.13847 -7.18529,4.42144 -11.87802,10.97897 -12.21799,18.76349 -0.0551,1.26166 -0.18075,2.17884 0.0294,2.87493 0.10509,0.34804 0.30863,0.63963 0.63539,0.84351 0.32675,0.20388 0.76607,0.32621 1.36104,0.39413 1.98623,0.22671 0.015,0.003 26.36797,0.84536 3.66913,0.11731 6.25999,0.29279 7.93045,0.72932 0.83522,0.21826 1.43593,0.50079 1.83251,0.85824 0.3966,0.35744 0.59893,0.78524 0.64645,1.35183 0.0351,0.4183 -0.25802,0.84102 -0.92454,1.25789 -0.66654,0.41688 -1.68121,0.80148 -2.96887,1.11794 -2.5753,0.63289 -6.24213,1.00495 -10.46652,0.95585 -11.57513,-0.13452 -17.10162,-0.55264 -19.75065,-0.803 -1.32451,-0.12516 -1.9107,-0.21224 -2.24137,-0.19522 -0.0827,0.004 -0.15543,0.0141 -0.22468,0.0461 -0.0692,0.032 -0.12927,0.0962 -0.1584,0.16023 -0.0582,0.12798 -0.0433,0.22437 -0.0571,0.34624 -0.11614,1.01848 0.35822,2.32491 1.01663,3.59137 0.65841,1.26646 1.50964,2.48276 2.19903,3.26906 1.3662,1.55831 3.03107,2.98833 4.63746,4.36672 6.46156,5.54449 15.38712,8.68112 25.7473,9.38913 9.33599,0.63801 17.95064,-1.42109 24.8154,-5.18447 l 4.92845,102.79215 19.50385,0.0516 -0.24494,-9.47566 c 1.96655,0.55762 4.35059,1.09871 7.64316,1.757 12.20815,2.44079 24.9816,1.51945 34.95039,-1.83988 0.13463,-0.0454 0.24026,-0.11212 0.37388,-0.15838 2.27891,-0.34427 4.41514,-0.83375 6.45707,-1.43656 v 11.41133 h 16.48343 v -8.89185 c 3.70575,2.26367 7.49201,4.21454 11.0927,5.41835 8.15923,2.72785 16.23618,3.58053 21.4561,3.62452 2.60995,0.022 4.49155,-0.15116 5.36311,-0.41439 0.21788,-0.0658 0.37524,-0.12612 0.48805,-0.24127 0.0564,-0.0575 0.10415,-0.14595 0.0957,-0.24309 -0.008,-0.0971 -0.0653,-0.17307 -0.12708,-0.22655 -0.12368,-0.10692 -0.29733,-0.17447 -0.55067,-0.24679 -0.25333,-0.0723 -0.58561,-0.14048 -1.00373,-0.20442 -8.02188,-1.22672 -16.26034,-7.71175 -22.88896,-15.04321 -6.62862,-7.33147 -11.65415,-15.51408 -13.28251,-20.03612 -0.16209,-0.45012 -0.38972,-0.66262 -0.56356,-1.07187 -0.57148,-1.39489 -1.30016,-2.75992 -2.17323,-4.11811 -0.2989,-0.61332 -0.56725,-1.22708 -0.99454,-1.83435 -2.31779,-3.2939 -4.70416,-7.08774 -8.41484,-10.28788 -7.40129,-6.38292 -18.0739,-11.54423 -30.27795,-13.98421 -10.41756,-2.08278 -20.15609,-1.73377 -28.18206,0.35914 -4.52603,-17.94631 -5.35336,-42.00093 -5.40361,-57.50599 l -0.002,-0.1897 -0.14365,0.009 c -0.0861,-7.12761 -3.5781,-13.80679 -9.55857,-18.93844 -6.45822,-5.54162 -15.63423,-9.31602 -26.00145,-10.02451 -1.29563,-0.0885 -2.5803,-0.13077 -3.85104,-0.12709 z"
           id="path218" /><g
           id="g73"
           transform="matrix(1.005827,0,0,1.005827,5.6229667,-4.363951)"><path
             style="display:inline;fill:#26a69a;fill-opacity:1;stroke-width:0.353987"
             d="m 519.59534,625.54353 c -1.83974,14.45304 -22.95857,22.2454 -47.17025,17.40476 -24.21167,-4.84067 -38.05674,-21.37527 -36.21699,-35.8283 0.91986,-7.22651 2.36852,-11.8939 10.90466,-15.04354 8.53614,-3.14963 19.86875,-3.88756 31.9746,-1.46724 12.10585,2.42034 22.69278,7.54066 30.02327,13.86252 3.66525,3.16094 6.02802,6.91637 8.33624,10.19667 2.51518,3.5744 2.60841,7.26189 2.14847,10.87513 z"
             id="path3416" /><path
             id="path3419"
             d="m 515.30437,631.62243 c -1.83973,14.45303 -28.3223,22.96056 -52.53397,18.1199 -12.10584,-2.42033 -12.85928,-3.11559 -19.11704,-9.66095 -6.25776,-6.54536 -8.36513,-17.86808 -7.44526,-25.09459 0.91986,-7.22653 -1.92245,-13.68182 6.61369,-16.83146 8.53613,-3.14964 19.86876,-3.88756 31.97459,-1.46723 24.21169,4.84066 42.34772,20.4813 40.50799,34.93433 z"
             style="display:inline;fill:#00695c;fill-opacity:1;stroke-width:0.353987" /><path
             id="path3336"
             d="m 445.52222,535.11113 c -1.04731,15.32512 -18.55003,26.61048 -39.09344,25.20656 -10.2717,-0.70196 -19.1059,-3.81121 -25.49407,-9.29272 -1.59705,-1.37039 -3.24668,-2.78631 -4.59333,-4.3223 -1.34665,-1.53599 -3.36901,-4.80807 -3.15483,-6.68619 0.12117,-1.06267 -0.89807,0.33228 22.12529,0.59981 8.42278,0.0979 14.62624,-1.47613 14.45619,-3.50324 -0.20111,-2.39775 -3.21931,-2.8512 -10.52083,-3.08466 -26.20106,-0.83772 -24.22632,-0.61232 -26.20106,-0.83772 -2.30815,-0.26347 -1.96831,-1.38453 -1.85814,-3.90677 0.67022,-15.34625 18.48999,-25.86728 39.0334,-24.46336 20.54341,1.40392 36.34813,14.96548 35.30082,30.29059 z"
             style="fill:#00897b;fill-opacity:1;stroke-width:0.353987" /><path
             d="m 429.17613,521.38245 a 4.6470151,4.5512671 0 0 1 -4.61947,4.55118 4.6470151,4.5512671 0 0 1 -4.67423,-4.49723 4.6470151,4.5512671 0 0 1 4.56406,-4.6045 4.6470151,4.5512671 0 0 1 4.72833,4.44265"
             id="path4138"
             style="fill:#e0f7fa;fill-opacity:1;stroke-width:0.353987" /><path
             id="rect4142"
             d="m 430.26791,534.53418 15.28721,-0.91443 c 0.0546,16.84664 0.97355,43.93123 6.68282,62.08548 0,0 10.08752,4.23645 10.61466,21.08295 0.2533,8.09487 -8.1134,22.81211 -8.1134,22.81211 l 0.46115,17.81093 -19.04225,-0.0522 z"
             style="fill:#00897b;fill-opacity:1;stroke-width:0.35398" /><path
             id="path4146"
             d="m 522.09841,629.65572 a 44.766044,26.279866 13.44805 0 1 -47.17025,17.40474 44.766044,26.279866 13.44805 0 1 -40.50797,-34.93432 44.766044,26.279866 13.44805 0 1 47.17025,-17.40474 44.766044,26.279866 13.44805 0 1 40.50797,34.93432 z"
             style="fill:#00897b;fill-opacity:1;stroke-width:0.353987" /><rect
             y="637.69257"
             x="504.45078"
             height="19.975019"
             width="16.034168"
             id="rect4150"
             style="fill:#00897b;fill-opacity:1;stroke-width:0.353987" /><path
             id="path4154"
             d="m 557.23755,656.60085 c 6.57416,1.00533 -9.31169,3.03272 -25.4901,-2.37614 -16.17842,-5.40887 -36.53599,-24.67117 -33.67051,-30.67277 2.86549,-6.00161 17.06294,-18.59378 23.05981,-1.94024 3.27004,9.08103 20.00268,32.52742 36.1008,34.98915 z"
             style="fill:#00897b;fill-opacity:1;stroke-width:0.352652" /></g></g></g></g></svg>
