<?xml version="1.0" encoding="UTF-8" standalone="no"?>
<!-- Created with Inkscape (http://www.inkscape.org/) -->

<svg
   width="142.89343mm"
   height="50.192963mm"
   viewBox="0 0 142.89343 50.192963"
   version="1.1"
   id="svg5"
   inkscape:version="1.1.2 (b8e25be833, 2022-02-05)"
   sodipodi:docname="multi-juicer.svg"
   xmlns:inkscape="http://www.inkscape.org/namespaces/inkscape"
   xmlns:sodipodi="http://sodipodi.sourceforge.net/DTD/sodipodi-0.dtd"
   xmlns="http://www.w3.org/2000/svg"
   xmlns:svg="http://www.w3.org/2000/svg">
  <sodipodi:namedview
     id="namedview7"
     pagecolor="#ffffff"
     bordercolor="#666666"
     borderopacity="1.0"
     inkscape:pageshadow="2"
     inkscape:pageopacity="0.0"
     inkscape:pagecheckerboard="0"
     inkscape:document-units="mm"
     showgrid="false"
     inkscape:zoom="0.7823708"
     inkscape:cx="298.45183"
     inkscape:cy="350.85665"
     inkscape:window-width="1368"
     inkscape:window-height="850"
     inkscape:window-x="-6"
     inkscape:window-y="-6"
     inkscape:window-maximized="1"
     inkscape:current-layer="layer1"
     fit-margin-top="0"
     fit-margin-left="0"
     fit-margin-right="0"
     fit-margin-bottom="0" />
  <defs
     id="defs2">
    <clipPath
       clipPathUnits="userSpaceOnUse"
       id="clipPath4241">
      <path
         d="M 741.45193,553.34686 A 367.6955,365.6752 0 0 1 378.68578,918.9892 367.6955,365.6752 0 0 1 6.1931097,563.1505 367.6955,365.6752 0 0 1 358.97195,187.96738 367.6955,365.6752 0 0 1 740.92337,533.74663"
         sodipodi:open="true"
         sodipodi:end="6.2295595"
         sodipodi:start="0"
         sodipodi:ry="365.6752"
         sodipodi:rx="367.6955"
         sodipodi:cy="553.34686"
         sodipodi:cx="373.75644"
         sodipodi:type="arc"
         id="path4243"
         style="fill:#4db6ac;fill-opacity:0.311258"
         sodipodi:arc-type="arc" />
    </clipPath>
  </defs>
  <g
     inkscape:label="Layer 1"
     inkscape:groupmode="layer"
     id="layer1"
     transform="translate(-0.91744833,-0.50992712)">
    <g
       id="g1020"
       transform="matrix(0.28222222,0,0,0.28222222,0.91744833,0.50992743)"
       inkscape:export-filename="C:\Users\willi\g1020.png"
       inkscape:export-xdpi="96"
       inkscape:export-ydpi="96">
      <g
         transform="translate(-73.22719,-491.37558)"
         style="display:inline"
         inkscape:label="Text"
         id="g50">
        <g
           aria-label="Dyno Robotics"
           transform="matrix(0.9375,0,0,0.9375,450.43594,453.92166)"
           style="font-style:normal;font-weight:normal;font-size:40px;line-height:1.25;font-family:sans-serif;letter-spacing:0px;word-spacing:0px;fill:#000000;fill-opacity:1;stroke:#000000;stroke-width:25;stroke-linecap:butt;stroke-linejoin:round;stroke-miterlimit:4;stroke-dasharray:none;stroke-opacity:1"
           id="flowRoot4765">
          <path
             d="m -369.65333,133.90409 q -9.17334,0 -19.52,-1.28 V 53.79742 q 7.04,-0.533333 12.26666,-0.853333 5.22667,-0.32 9.38667,-0.32 10.66667,0 18.13333,2.346667 7.57334,2.24 12.37334,7.146666 4.8,4.906667 7.04,12.586667 2.24,7.679999 2.24,18.453333 0,10.88 -2.34667,18.66667 -2.34667,7.68 -7.36,12.58666 -5.01333,4.90667 -13.01333,7.25334 -7.89334,2.24 -19.2,2.24 z m 5.76,-13.33334 q 5.33333,0 8.96,-1.38666 3.73333,-1.38667 5.97333,-4.58667 2.24,-3.2 3.2,-8.42667 1.06667,-5.33333 1.06667,-13.119997 0,-7.68 -1.06667,-12.906666 -0.96,-5.226667 -3.30667,-8.426667 -2.34666,-3.2 -6.18666,-4.586666 -3.84,-1.386667 -9.49334,-1.386667 -4.05333,0 -8.21333,0.64 v 53.546663 q 2.77333,0.32 4.90667,0.53334 2.13333,0.10666 4.16,0.10666 z"
             style="font-style:normal;font-variant:normal;font-weight:bold;font-stretch:normal;font-size:106.667px;line-height:75.7px;font-family:'Encode Sans Condensed';-inkscape-font-specification:'Encode Sans Condensed, Bold';stroke:#000000;stroke-width:25;stroke-linecap:butt;stroke-linejoin:round;stroke-miterlimit:4;stroke-dasharray:none;stroke-opacity:1"
             id="path4815" />
          <path
             d="m -309.51667,153.10408 v -0.96 l 6.93333,-19.94666 -20.90667,-55.893333 V 74.91742 h 16.64 l 10.13334,32.74667 1.92,8.53333 h 0.96 l 1.92,-8.53333 10.24,-32.74667 h 16.53333 v 1.386667 l -28.69333,79.679993 z"
             style="font-style:normal;font-variant:normal;font-weight:bold;font-stretch:normal;font-size:106.667px;line-height:75.7px;font-family:'Encode Sans Condensed';-inkscape-font-specification:'Encode Sans Condensed, Bold';stroke:#000000;stroke-width:25;stroke-linecap:butt;stroke-linejoin:round;stroke-miterlimit:4;stroke-dasharray:none;stroke-opacity:1"
             id="path4817" />
          <path
             d="m -258.99,74.91742 h 13.54667 l 0.96,6.293333 h 0.53333 q 3.52,-2.026666 6.29333,-3.413333 2.77334,-1.493333 5.12,-2.346667 2.45334,-0.853333 4.58667,-1.173333 2.24,-0.426667 4.48,-0.426667 6.72,0 10.34667,4.053334 3.62666,4.053333 3.62666,11.519999 v 43.093334 h -16.10666 V 94.864086 q 0,-4.053333 -1.49334,-5.76 -1.38666,-1.706666 -4.16,-1.706666 -2.45333,0 -5.54666,1.066666 -2.98667,0.96 -6.08,2.666667 V 132.51742 H -258.99 Z"
             style="font-style:normal;font-variant:normal;font-weight:bold;font-stretch:normal;font-size:106.667px;line-height:75.7px;font-family:'Encode Sans Condensed';-inkscape-font-specification:'Encode Sans Condensed, Bold';stroke:#000000;stroke-width:25;stroke-linecap:butt;stroke-linejoin:round;stroke-miterlimit:4;stroke-dasharray:none;stroke-opacity:1"
             id="path4819" />
          <path
             d="m -173.83667,133.58409 q -13.12,0 -19.94667,-7.57334 -6.82667,-7.57333 -6.82667,-22.29333 0,-14.72 6.82667,-22.293333 6.82667,-7.573334 19.94667,-7.573334 13.22666,0 19.94666,7.573334 6.82667,7.573333 6.82667,22.293333 0,14.72 -6.82667,22.29333 -6.72,7.57334 -19.94666,7.57334 z m 0,-12.37334 q 2.98666,0 5.01333,-0.85333 2.02667,-0.85333 3.30667,-2.77333 1.28,-2.02667 1.81333,-5.33334 0.53333,-3.41333 0.53333,-8.53333 0,-5.120001 -0.53333,-8.426667 -0.53333,-3.413333 -1.81333,-5.333333 -1.28,-2.026667 -3.30667,-2.88 -2.02667,-0.853334 -5.01333,-0.853334 -2.98667,0 -5.01334,0.853334 -2.02666,0.853333 -3.30666,2.88 -1.17334,1.92 -1.70667,5.333333 -0.53333,3.306666 -0.53333,8.426667 0,5.12 0.53333,8.53333 0.53333,3.30667 1.70667,5.33334 1.28,1.92 3.30666,2.77333 2.02667,0.85333 5.01334,0.85333 z"
             style="font-style:normal;font-variant:normal;font-weight:bold;font-stretch:normal;font-size:106.667px;line-height:75.7px;font-family:'Encode Sans Condensed';-inkscape-font-specification:'Encode Sans Condensed, Bold';stroke:#000000;stroke-width:25;stroke-linecap:butt;stroke-linejoin:round;stroke-miterlimit:4;stroke-dasharray:none;stroke-opacity:1"
             id="path4821" />
          <path
             d="m -364.512,191.6008 q -1.248,0.096 -2.496,0.192 -1.248,0 -2.592,0 -0.384,0 -1.152,0 -0.672,0 -1.536,0 -0.864,0 -1.632,0 -0.768,-0.096 -1.152,-0.096 v 24.384 h -14.784 v -70.56 q 4.512,-0.768 9.216,-1.056 4.704,-0.384 9.504,-0.384 16.992,0 24.672,5.76 7.68,5.664 7.68,18.336 0,15.552 -12.672,20.832 l 14.88,27.072 h -15.84 z m -4.128,-11.232 q 4.128,0 6.912,-0.672 2.784,-0.672 4.512,-2.112 1.728,-1.44 2.496,-3.744 0.768,-2.304 0.768,-5.664 0,-3.36 -0.768,-5.664 -0.768,-2.4 -2.496,-3.84 -1.728,-1.44 -4.512,-2.016 -2.784,-0.672 -6.816,-0.672 -1.344,0 -3.264,0.192 -1.824,0.192 -3.264,0.384 v 23.328 q 1.344,0.192 3.072,0.384 1.728,0.096 3.36,0.096 z"
             style="font-style:normal;font-variant:normal;font-weight:bold;font-stretch:normal;font-size:96px;line-height:75.7px;font-family:'Encode Sans Condensed';-inkscape-font-specification:'Encode Sans Condensed, Bold';stroke:#000000;stroke-width:25;stroke-linecap:butt;stroke-linejoin:round;stroke-miterlimit:4;stroke-dasharray:none;stroke-opacity:1"
             id="path4823" />
          <path
             d="m -309.303,217.0408 q -11.808,0 -17.952,-6.816 -6.144,-6.816 -6.144,-20.064 0,-13.248 6.144,-20.064 6.144,-6.816 17.952,-6.816 11.904,0 17.952,6.816 6.144,6.816 6.144,20.064 0,13.248 -6.144,20.064 -6.048,6.816 -17.952,6.816 z m 0,-11.136 q 2.688,0 4.512,-0.768 1.824,-0.768 2.976,-2.496 1.152,-1.824 1.632,-4.8 0.48,-3.072 0.48,-7.68 0,-4.608 -0.48,-7.584 -0.48,-3.072 -1.632,-4.8 -1.152,-1.824 -2.976,-2.592 -1.824,-0.768 -4.512,-0.768 -2.688,0 -4.512,0.768 -1.824,0.768 -2.976,2.592 -1.056,1.728 -1.536,4.8 -0.48,2.976 -0.48,7.584 0,4.608 0.48,7.68 0.48,2.976 1.536,4.8 1.152,1.728 2.976,2.496 1.824,0.768 4.512,0.768 z"
             style="font-style:normal;font-variant:normal;font-weight:bold;font-stretch:normal;font-size:96px;line-height:75.7px;font-family:'Encode Sans Condensed';-inkscape-font-specification:'Encode Sans Condensed, Bold';stroke:#000000;stroke-width:25;stroke-linecap:butt;stroke-linejoin:round;stroke-miterlimit:4;stroke-dasharray:none;stroke-opacity:1"
             id="path4825" />
          <path
             d="m -256.1715,217.0408 q -4.416,0 -9.408,-0.864 -4.992,-0.768 -11.52,-2.592 v -75.072 h 14.496 v 31.008 q 4.8,-6.144 13.824,-6.144 18.336,0 18.336,25.248 0,6.432 -1.536,11.616 -1.44,5.184 -4.608,8.928 -3.168,3.648 -8.064,5.76 -4.8,2.016 -11.52,2.112 z m 0.192,-9.792 q 2.976,0 5.088,-0.768 2.112,-0.864 3.36,-2.88 1.248,-2.016 1.824,-5.28 0.576,-3.264 0.576,-8.16 0,-4.704 -0.48,-7.776 -0.384,-3.168 -1.44,-4.992 -0.96,-1.92 -2.592,-2.688 -1.632,-0.768 -4.032,-0.768 -4.32,0 -6.624,3.168 -2.304,3.072 -2.304,10.944 v 18.24 q 1.344,0.48 2.976,0.768 1.728,0.192 3.648,0.192 z"
             style="font-style:normal;font-variant:normal;font-weight:bold;font-stretch:normal;font-size:96px;line-height:75.7px;font-family:'Encode Sans Condensed';-inkscape-font-specification:'Encode Sans Condensed, Bold';stroke:#000000;stroke-width:25;stroke-linecap:butt;stroke-linejoin:round;stroke-miterlimit:4;stroke-dasharray:none;stroke-opacity:1"
             id="path4827" />
          <path
             d="m -200.3655,217.0408 q -11.808,0 -17.952,-6.816 -6.144,-6.816 -6.144,-20.064 0,-13.248 6.144,-20.064 6.144,-6.816 17.952,-6.816 11.904,0 17.952,6.816 6.144,6.816 6.144,20.064 0,13.248 -6.144,20.064 -6.048,6.816 -17.952,6.816 z m 0,-11.136 q 2.688,0 4.512,-0.768 1.824,-0.768 2.976,-2.496 1.152,-1.824 1.632,-4.8 0.48,-3.072 0.48,-7.68 0,-4.608 -0.48,-7.584 -0.48,-3.072 -1.632,-4.8 -1.152,-1.824 -2.976,-2.592 -1.824,-0.768 -4.512,-0.768 -2.688,0 -4.512,0.768 -1.824,0.768 -2.976,2.592 -1.056,1.728 -1.536,4.8 -0.48,2.976 -0.48,7.584 0,4.608 0.48,7.68 0.48,2.976 1.536,4.8 1.152,1.728 2.976,2.496 1.824,0.768 4.512,0.768 z"
             style="font-style:normal;font-variant:normal;font-weight:bold;font-stretch:normal;font-size:96px;line-height:75.7px;font-family:'Encode Sans Condensed';-inkscape-font-specification:'Encode Sans Condensed, Bold';stroke:#000000;stroke-width:25;stroke-linecap:butt;stroke-linejoin:round;stroke-miterlimit:4;stroke-dasharray:none;stroke-opacity:1"
             id="path4829" />
          <path
             d="m -147.321,216.8488 q -8.352,0 -12.576,-3.84 -4.128,-3.936 -4.128,-11.424 v -25.152 h -8.352 v -12.192 h 9.12 l 2.016,-14.688 11.52,-1.344 v 16.032 h 11.52 v 12.192 h -11.424 v 21.792 q 0,4.224 1.536,5.952 1.536,1.728 4.8,1.728 2.4,0 5.184,-0.864 v 10.752 q -4.224,1.056 -9.216,1.056 z"
             style="font-style:normal;font-variant:normal;font-weight:bold;font-stretch:normal;font-size:96px;line-height:75.7px;font-family:'Encode Sans Condensed';-inkscape-font-specification:'Encode Sans Condensed, Bold';stroke:#000000;stroke-width:25;stroke-linecap:butt;stroke-linejoin:round;stroke-miterlimit:4;stroke-dasharray:none;stroke-opacity:1"
             id="path4831" />
          <path
             d="m -123.645,156.3688 q -4.32,0 -6.24,-1.824 -1.824,-1.92 -1.824,-6.048 0,-4.128 1.824,-5.952 1.92,-1.92 6.24,-1.92 4.32,0 6.144,1.92 1.92,1.92 1.92,5.952 0,4.032 -1.92,5.952 -1.824,1.92 -6.144,1.92 z m -7.296,7.872 h 14.496 v 51.84 h -14.496 z"
             style="font-style:normal;font-variant:normal;font-weight:bold;font-stretch:normal;font-size:96px;line-height:75.7px;font-family:'Encode Sans Condensed';-inkscape-font-specification:'Encode Sans Condensed, Bold';stroke:#000000;stroke-width:25;stroke-linecap:butt;stroke-linejoin:round;stroke-miterlimit:4;stroke-dasharray:none;stroke-opacity:1"
             id="path4833" />
          <path
             d="m -83.0595,216.9448 q -12.576,0 -18.816,-6.432 -6.24,-6.528 -6.24,-20.352 0,-13.728 6.24,-20.256 6.24,-6.528 18.816,-6.528 3.072,0 6.048,0.384 3.072,0.288 5.568,1.056 v 11.424 q -2.784,-0.48 -5.376,-0.768 -2.496,-0.288 -4.704,-0.288 -6.432,0 -9.216,3.456 -2.688,3.36 -2.688,11.424 0,8.064 2.688,11.616 2.784,3.552 9.12,3.552 2.784,0 5.184,-0.192 2.4,-0.288 4.992,-0.864 v 11.232 q -2.208,0.768 -5.376,1.152 -3.072,0.384 -6.24,0.384 z"
             style="font-style:normal;font-variant:normal;font-weight:bold;font-stretch:normal;font-size:96px;line-height:75.7px;font-family:'Encode Sans Condensed';-inkscape-font-specification:'Encode Sans Condensed, Bold';stroke:#000000;stroke-width:25;stroke-linecap:butt;stroke-linejoin:round;stroke-miterlimit:4;stroke-dasharray:none;stroke-opacity:1"
             id="path4835" />
          <path
             d="m -47.994,217.0408 q -3.84,0 -8.16,-0.672 -4.224,-0.576 -8.64,-1.728 v -10.56 q 3.936,1.152 8.16,1.92 4.32,0.672 8.16,0.672 7.488,0 7.488,-5.088 0,-2.496 -1.728,-3.744 -1.728,-1.344 -5.376,-2.016 -2.592,-0.384 -5.472,-0.96 -2.88,-0.576 -5.376,-2.112 -2.4,-1.632 -4.032,-4.704 -1.632,-3.072 -1.632,-8.352 0,-7.776 4.992,-12.096 4.992,-4.416 14.016,-4.416 3.456,0 7.296,0.48 3.936,0.48 8.736,1.44 l -0.096,10.752 q -4.8,-1.056 -7.872,-1.44 -3.072,-0.48 -5.568,-0.48 -3.936,0 -5.952,1.344 -1.92,1.344 -1.92,3.84 0,2.784 1.92,3.936 2.016,1.056 5.568,1.728 3.072,0.48 5.952,1.344 2.976,0.864 5.28,2.592 2.304,1.728 3.648,4.608 1.44,2.784 1.44,7.2 0,7.968 -5.376,12.288 -5.376,4.224 -15.456,4.224 z"
             style="font-style:normal;font-variant:normal;font-weight:bold;font-stretch:normal;font-size:96px;line-height:75.7px;font-family:'Encode Sans Condensed';-inkscape-font-specification:'Encode Sans Condensed, Bold';stroke:#000000;stroke-width:25;stroke-linecap:butt;stroke-linejoin:round;stroke-miterlimit:4;stroke-dasharray:none;stroke-opacity:1"
             id="path4837" />
        </g>
        <path
           style="fill:#000000;fill-opacity:1;stroke:none;stroke-width:0.9375px;stroke-linecap:butt;stroke-linejoin:miter;stroke-opacity:1"
           d="m 90.533752,512.65288 0.499839,135.95623 319.397179,2.99903 -3.9987,-37.48793 -100.46766,-0.99968 -9.49695,-39.98713 9.49695,-17.49437 -12.99582,-24.49211 -24.49212,9.49694 -109.9646,-1.49951 -29.99035,-18.49406 -16.99453,-11.99613 z"
           id="path4769"
           inkscape:connector-curvature="0" />
        <g
           aria-label="Dyno Robotics"
           transform="matrix(0.9375,0,0,0.9375,450.43594,453.92166)"
           style="font-style:normal;font-weight:normal;font-size:40px;line-height:1.25;font-family:sans-serif;letter-spacing:0px;word-spacing:0px;fill:#ffffff;fill-opacity:1;stroke:none"
           id="flowRoot48">
          <path
             d="m -369.65333,133.90409 q -9.17334,0 -19.52,-1.28 V 53.79742 q 7.04,-0.533333 12.26666,-0.853333 5.22667,-0.32 9.38667,-0.32 10.66667,0 18.13333,2.346667 7.57334,2.24 12.37334,7.146666 4.8,4.906667 7.04,12.586667 2.24,7.679999 2.24,18.453333 0,10.88 -2.34667,18.66667 -2.34667,7.68 -7.36,12.58666 -5.01333,4.90667 -13.01333,7.25334 -7.89334,2.24 -19.2,2.24 z m 5.76,-13.33334 q 5.33333,0 8.96,-1.38666 3.73333,-1.38667 5.97333,-4.58667 2.24,-3.2 3.2,-8.42667 1.06667,-5.33333 1.06667,-13.119997 0,-7.68 -1.06667,-12.906666 -0.96,-5.226667 -3.30667,-8.426667 -2.34666,-3.2 -6.18666,-4.586666 -3.84,-1.386667 -9.49334,-1.386667 -4.05333,0 -8.21333,0.64 v 53.546663 q 2.77333,0.32 4.90667,0.53334 2.13333,0.10666 4.16,0.10666 z"
             style="font-style:normal;font-variant:normal;font-weight:bold;font-stretch:normal;font-size:106.667px;line-height:75.7px;font-family:'Encode Sans Condensed';-inkscape-font-specification:'Encode Sans Condensed, Bold';fill:#ffffff;fill-opacity:1"
             id="path4790" />
          <path
             d="m -309.51667,153.10408 v -0.96 l 6.93333,-19.94666 -20.90667,-55.893333 V 74.91742 h 16.64 l 10.13334,32.74667 1.92,8.53333 h 0.96 l 1.92,-8.53333 10.24,-32.74667 h 16.53333 v 1.386667 l -28.69333,79.679993 z"
             style="font-style:normal;font-variant:normal;font-weight:bold;font-stretch:normal;font-size:106.667px;line-height:75.7px;font-family:'Encode Sans Condensed';-inkscape-font-specification:'Encode Sans Condensed, Bold';fill:#ffffff;fill-opacity:1"
             id="path4792" />
          <path
             d="m -258.99,74.91742 h 13.54667 l 0.96,6.293333 h 0.53333 q 3.52,-2.026666 6.29333,-3.413333 2.77334,-1.493333 5.12,-2.346667 2.45334,-0.853333 4.58667,-1.173333 2.24,-0.426667 4.48,-0.426667 6.72,0 10.34667,4.053334 3.62666,4.053333 3.62666,11.519999 v 43.093334 h -16.10666 V 94.864086 q 0,-4.053333 -1.49334,-5.76 -1.38666,-1.706666 -4.16,-1.706666 -2.45333,0 -5.54666,1.066666 -2.98667,0.96 -6.08,2.666667 V 132.51742 H -258.99 Z"
             style="font-style:normal;font-variant:normal;font-weight:bold;font-stretch:normal;font-size:106.667px;line-height:75.7px;font-family:'Encode Sans Condensed';-inkscape-font-specification:'Encode Sans Condensed, Bold';fill:#ffffff;fill-opacity:1"
             id="path4794" />
          <path
             d="m -173.83667,133.58409 q -13.12,0 -19.94667,-7.57334 -6.82667,-7.57333 -6.82667,-22.29333 0,-14.72 6.82667,-22.293333 6.82667,-7.573334 19.94667,-7.573334 13.22666,0 19.94666,7.573334 6.82667,7.573333 6.82667,22.293333 0,14.72 -6.82667,22.29333 -6.72,7.57334 -19.94666,7.57334 z m 0,-12.37334 q 2.98666,0 5.01333,-0.85333 2.02667,-0.85333 3.30667,-2.77333 1.28,-2.02667 1.81333,-5.33334 0.53333,-3.41333 0.53333,-8.53333 0,-5.120001 -0.53333,-8.426667 -0.53333,-3.413333 -1.81333,-5.333333 -1.28,-2.026667 -3.30667,-2.88 -2.02667,-0.853334 -5.01333,-0.853334 -2.98667,0 -5.01334,0.853334 -2.02666,0.853333 -3.30666,2.88 -1.17334,1.92 -1.70667,5.333333 -0.53333,3.306666 -0.53333,8.426667 0,5.12 0.53333,8.53333 0.53333,3.30667 1.70667,5.33334 1.28,1.92 3.30666,2.77333 2.02667,0.85333 5.01334,0.85333 z"
             style="font-style:normal;font-variant:normal;font-weight:bold;font-stretch:normal;font-size:106.667px;line-height:75.7px;font-family:'Encode Sans Condensed';-inkscape-font-specification:'Encode Sans Condensed, Bold';fill:#ffffff;fill-opacity:1"
             id="path4796" />
          <path
             d="m -364.512,191.6008 q -1.248,0.096 -2.496,0.192 -1.248,0 -2.592,0 -0.384,0 -1.152,0 -0.672,0 -1.536,0 -0.864,0 -1.632,0 -0.768,-0.096 -1.152,-0.096 v 24.384 h -14.784 v -70.56 q 4.512,-0.768 9.216,-1.056 4.704,-0.384 9.504,-0.384 16.992,0 24.672,5.76 7.68,5.664 7.68,18.336 0,15.552 -12.672,20.832 l 14.88,27.072 h -15.84 z m -4.128,-11.232 q 4.128,0 6.912,-0.672 2.784,-0.672 4.512,-2.112 1.728,-1.44 2.496,-3.744 0.768,-2.304 0.768,-5.664 0,-3.36 -0.768,-5.664 -0.768,-2.4 -2.496,-3.84 -1.728,-1.44 -4.512,-2.016 -2.784,-0.672 -6.816,-0.672 -1.344,0 -3.264,0.192 -1.824,0.192 -3.264,0.384 v 23.328 q 1.344,0.192 3.072,0.384 1.728,0.096 3.36,0.096 z"
             style="font-style:normal;font-variant:normal;font-weight:bold;font-stretch:normal;font-size:96px;line-height:75.7px;font-family:'Encode Sans Condensed';-inkscape-font-specification:'Encode Sans Condensed, Bold';fill:#ffffff;fill-opacity:1"
             id="path4798" />
          <path
             d="m -309.303,217.0408 q -11.808,0 -17.952,-6.816 -6.144,-6.816 -6.144,-20.064 0,-13.248 6.144,-20.064 6.144,-6.816 17.952,-6.816 11.904,0 17.952,6.816 6.144,6.816 6.144,20.064 0,13.248 -6.144,20.064 -6.048,6.816 -17.952,6.816 z m 0,-11.136 q 2.688,0 4.512,-0.768 1.824,-0.768 2.976,-2.496 1.152,-1.824 1.632,-4.8 0.48,-3.072 0.48,-7.68 0,-4.608 -0.48,-7.584 -0.48,-3.072 -1.632,-4.8 -1.152,-1.824 -2.976,-2.592 -1.824,-0.768 -4.512,-0.768 -2.688,0 -4.512,0.768 -1.824,0.768 -2.976,2.592 -1.056,1.728 -1.536,4.8 -0.48,2.976 -0.48,7.584 0,4.608 0.48,7.68 0.48,2.976 1.536,4.8 1.152,1.728 2.976,2.496 1.824,0.768 4.512,0.768 z"
             style="font-style:normal;font-variant:normal;font-weight:bold;font-stretch:normal;font-size:96px;line-height:75.7px;font-family:'Encode Sans Condensed';-inkscape-font-specification:'Encode Sans Condensed, Bold';fill:#ffffff;fill-opacity:1"
             id="path4800" />
          <path
             d="m -256.1715,217.0408 q -4.416,0 -9.408,-0.864 -4.992,-0.768 -11.52,-2.592 v -75.072 h 14.496 v 31.008 q 4.8,-6.144 13.824,-6.144 18.336,0 18.336,25.248 0,6.432 -1.536,11.616 -1.44,5.184 -4.608,8.928 -3.168,3.648 -8.064,5.76 -4.8,2.016 -11.52,2.112 z m 0.192,-9.792 q 2.976,0 5.088,-0.768 2.112,-0.864 3.36,-2.88 1.248,-2.016 1.824,-5.28 0.576,-3.264 0.576,-8.16 0,-4.704 -0.48,-7.776 -0.384,-3.168 -1.44,-4.992 -0.96,-1.92 -2.592,-2.688 -1.632,-0.768 -4.032,-0.768 -4.32,0 -6.624,3.168 -2.304,3.072 -2.304,10.944 v 18.24 q 1.344,0.48 2.976,0.768 1.728,0.192 3.648,0.192 z"
             style="font-style:normal;font-variant:normal;font-weight:bold;font-stretch:normal;font-size:96px;line-height:75.7px;font-family:'Encode Sans Condensed';-inkscape-font-specification:'Encode Sans Condensed, Bold';fill:#ffffff;fill-opacity:1"
             id="path4802" />
          <path
             d="m -200.3655,217.0408 q -11.808,0 -17.952,-6.816 -6.144,-6.816 -6.144,-20.064 0,-13.248 6.144,-20.064 6.144,-6.816 17.952,-6.816 11.904,0 17.952,6.816 6.144,6.816 6.144,20.064 0,13.248 -6.144,20.064 -6.048,6.816 -17.952,6.816 z m 0,-11.136 q 2.688,0 4.512,-0.768 1.824,-0.768 2.976,-2.496 1.152,-1.824 1.632,-4.8 0.48,-3.072 0.48,-7.68 0,-4.608 -0.48,-7.584 -0.48,-3.072 -1.632,-4.8 -1.152,-1.824 -2.976,-2.592 -1.824,-0.768 -4.512,-0.768 -2.688,0 -4.512,0.768 -1.824,0.768 -2.976,2.592 -1.056,1.728 -1.536,4.8 -0.48,2.976 -0.48,7.584 0,4.608 0.48,7.68 0.48,2.976 1.536,4.8 1.152,1.728 2.976,2.496 1.824,0.768 4.512,0.768 z"
             style="font-style:normal;font-variant:normal;font-weight:bold;font-stretch:normal;font-size:96px;line-height:75.7px;font-family:'Encode Sans Condensed';-inkscape-font-specification:'Encode Sans Condensed, Bold';fill:#ffffff;fill-opacity:1"
             id="path4804" />
          <path
             d="m -147.321,216.8488 q -8.352,0 -12.576,-3.84 -4.128,-3.936 -4.128,-11.424 v -25.152 h -8.352 v -12.192 h 9.12 l 2.016,-14.688 11.52,-1.344 v 16.032 h 11.52 v 12.192 h -11.424 v 21.792 q 0,4.224 1.536,5.952 1.536,1.728 4.8,1.728 2.4,0 5.184,-0.864 v 10.752 q -4.224,1.056 -9.216,1.056 z"
             style="font-style:normal;font-variant:normal;font-weight:bold;font-stretch:normal;font-size:96px;line-height:75.7px;font-family:'Encode Sans Condensed';-inkscape-font-specification:'Encode Sans Condensed, Bold';fill:#ffffff;fill-opacity:1"
             id="path4806" />
          <path
             d="m -123.645,156.3688 q -4.32,0 -6.24,-1.824 -1.824,-1.92 -1.824,-6.048 0,-4.128 1.824,-5.952 1.92,-1.92 6.24,-1.92 4.32,0 6.144,1.92 1.92,1.92 1.92,5.952 0,4.032 -1.92,5.952 -1.824,1.92 -6.144,1.92 z m -7.296,7.872 h 14.496 v 51.84 h -14.496 z"
             style="font-style:normal;font-variant:normal;font-weight:bold;font-stretch:normal;font-size:96px;line-height:75.7px;font-family:'Encode Sans Condensed';-inkscape-font-specification:'Encode Sans Condensed, Bold';fill:#ffffff;fill-opacity:1"
             id="path4808" />
          <path
             d="m -83.0595,216.9448 q -12.576,0 -18.816,-6.432 -6.24,-6.528 -6.24,-20.352 0,-13.728 6.24,-20.256 6.24,-6.528 18.816,-6.528 3.072,0 6.048,0.384 3.072,0.288 5.568,1.056 v 11.424 q -2.784,-0.48 -5.376,-0.768 -2.496,-0.288 -4.704,-0.288 -6.432,0 -9.216,3.456 -2.688,3.36 -2.688,11.424 0,8.064 2.688,11.616 2.784,3.552 9.12,3.552 2.784,0 5.184,-0.192 2.4,-0.288 4.992,-0.864 v 11.232 q -2.208,0.768 -5.376,1.152 -3.072,0.384 -6.24,0.384 z"
             style="font-style:normal;font-variant:normal;font-weight:bold;font-stretch:normal;font-size:96px;line-height:75.7px;font-family:'Encode Sans Condensed';-inkscape-font-specification:'Encode Sans Condensed, Bold';fill:#ffffff;fill-opacity:1"
             id="path4810" />
          <path
             d="m -47.994,217.0408 q -3.84,0 -8.16,-0.672 -4.224,-0.576 -8.64,-1.728 v -10.56 q 3.936,1.152 8.16,1.92 4.32,0.672 8.16,0.672 7.488,0 7.488,-5.088 0,-2.496 -1.728,-3.744 -1.728,-1.344 -5.376,-2.016 -2.592,-0.384 -5.472,-0.96 -2.88,-0.576 -5.376,-2.112 -2.4,-1.632 -4.032,-4.704 -1.632,-3.072 -1.632,-8.352 0,-7.776 4.992,-12.096 4.992,-4.416 14.016,-4.416 3.456,0 7.296,0.48 3.936,0.48 8.736,1.44 l -0.096,10.752 q -4.8,-1.056 -7.872,-1.44 -3.072,-0.48 -5.568,-0.48 -3.936,0 -5.952,1.344 -1.92,1.344 -1.92,3.84 0,2.784 1.92,3.936 2.016,1.056 5.568,1.728 3.072,0.48 5.952,1.344 2.976,0.864 5.28,2.592 2.304,1.728 3.648,4.608 1.44,2.784 1.44,7.2 0,7.968 -5.376,12.288 -5.376,4.224 -15.456,4.224 z"
             style="font-style:normal;font-variant:normal;font-weight:bold;font-stretch:normal;font-size:96px;line-height:75.7px;font-family:'Encode Sans Condensed';-inkscape-font-specification:'Encode Sans Condensed, Bold';fill:#ffffff;fill-opacity:1"
             id="path4812" />
        </g>
      </g>
      <g
         inkscape:label="Dino"
         id="layer1-5"
         style="display:inline"
         transform="translate(-73.22719,-491.37558)">
        <path
           style="color:#000000;font-style:normal;font-variant:normal;font-weight:normal;font-stretch:normal;font-size:medium;line-height:normal;font-family:sans-serif;font-variant-ligatures:normal;font-variant-position:normal;font-variant-caps:normal;font-variant-numeric:normal;font-variant-alternates:normal;font-feature-settings:normal;text-indent:0;text-align:start;text-decoration:none;text-decoration-line:none;text-decoration-style:solid;text-decoration-color:#000000;letter-spacing:normal;word-spacing:normal;text-transform:none;writing-mode:lr-tb;direction:ltr;text-orientation:mixed;dominant-baseline:auto;baseline-shift:baseline;text-anchor:start;white-space:normal;shape-padding:0;clip-rule:nonzero;display:inline;overflow:visible;visibility:visible;opacity:1;isolation:auto;mix-blend-mode:normal;color-interpolation:sRGB;color-interpolation-filters:linearRGB;solid-color:#000000;solid-opacity:1;vector-effect:none;fill-opacity:1;fill-rule:nonzero;stroke:#000000;stroke-width:23.4375;stroke-linecap:butt;stroke-linejoin:round;stroke-miterlimit:4;stroke-dasharray:none;stroke-dashoffset:0;stroke-opacity:1;color-rendering:auto;image-rendering:auto;shape-rendering:auto;text-rendering:auto;enable-background:accumulate"
           d="m 414.3957,503.09466 c -8.89515,0.0258 -17.09356,2.26972 -23.38068,6.13847 -7.18529,4.42144 -11.87802,10.97897 -12.21799,18.76349 -0.0551,1.26166 -0.18075,2.17884 0.0294,2.87493 0.10509,0.34804 0.30863,0.63963 0.63539,0.84351 0.32675,0.20388 0.76607,0.32621 1.36104,0.39413 1.98623,0.22671 0.015,0.003 26.36797,0.84536 3.66913,0.11731 6.25999,0.29279 7.93045,0.72932 0.83522,0.21826 1.43593,0.50079 1.83251,0.85824 0.3966,0.35744 0.59893,0.78524 0.64645,1.35183 0.0351,0.4183 -0.25802,0.84102 -0.92454,1.25789 -0.66654,0.41688 -1.68121,0.80148 -2.96887,1.11794 -2.5753,0.63289 -6.24213,1.00495 -10.46652,0.95585 -11.57513,-0.13452 -17.10162,-0.55264 -19.75065,-0.803 -1.32451,-0.12516 -1.9107,-0.21224 -2.24137,-0.19522 -0.0827,0.004 -0.15543,0.0141 -0.22468,0.0461 -0.0692,0.032 -0.12927,0.0962 -0.1584,0.16023 -0.0582,0.12798 -0.0433,0.22437 -0.0571,0.34624 -0.11614,1.01848 0.35822,2.32491 1.01663,3.59137 0.65841,1.26646 1.50964,2.48276 2.19903,3.26906 1.3662,1.55831 3.03107,2.98833 4.63746,4.36672 6.46156,5.54449 15.38712,8.68112 25.7473,9.38913 9.33599,0.63801 17.95064,-1.42109 24.8154,-5.18447 l 4.92845,102.79215 19.50385,0.0516 -0.24494,-9.47566 c 1.96655,0.55762 4.35059,1.09871 7.64316,1.757 12.20815,2.44079 24.9816,1.51945 34.95039,-1.83988 0.13463,-0.0454 0.24026,-0.11212 0.37388,-0.15838 2.27891,-0.34427 4.41514,-0.83375 6.45707,-1.43656 v 11.41133 h 16.48343 v -8.89185 c 3.70575,2.26367 7.49201,4.21454 11.0927,5.41835 8.15923,2.72785 16.23618,3.58053 21.4561,3.62452 2.60995,0.022 4.49155,-0.15116 5.36311,-0.41439 0.21788,-0.0658 0.37524,-0.12612 0.48805,-0.24127 0.0564,-0.0575 0.10415,-0.14595 0.0957,-0.24309 -0.008,-0.0971 -0.0653,-0.17307 -0.12708,-0.22655 -0.12368,-0.10692 -0.29733,-0.17447 -0.55067,-0.24679 -0.25333,-0.0723 -0.58561,-0.14048 -1.00373,-0.20442 -8.02188,-1.22672 -16.26034,-7.71175 -22.88896,-15.04321 -6.62862,-7.33147 -11.65415,-15.51408 -13.28251,-20.03612 -0.16209,-0.45012 -0.38972,-0.66262 -0.56356,-1.07187 -0.57148,-1.39489 -1.30016,-2.75992 -2.17323,-4.11811 -0.2989,-0.61332 -0.56725,-1.22708 -0.99454,-1.83435 -2.31779,-3.2939 -4.70416,-7.08774 -8.41484,-10.28788 -7.40129,-6.38292 -18.0739,-11.54423 -30.27795,-13.98421 -10.41756,-2.08278 -20.15609,-1.73377 -28.18206,0.35914 -4.52603,-17.94631 -5.35336,-42.00093 -5.40361,-57.50599 l -0.002,-0.1897 -0.14365,0.009 c -0.0861,-7.12761 -3.5781,-13.80679 -9.55857,-18.93844 -6.45822,-5.54162 -15.63423,-9.31602 -26.00145,-10.02451 -1.29563,-0.0885 -2.5803,-0.13077 -3.85104,-0.12709 z"
           id="path218"
           inkscape:connector-curvature="0" />
        <g
           id="g73"
           transform="matrix(1.005827,0,0,1.005827,5.6229667,-4.363951)">
          <path
             sodipodi:nodetypes="ssssssss"
             style="display:inline;fill:#26a69a;fill-opacity:1;stroke-width:0.353987"
             d="m 519.59534,625.54353 c -1.83974,14.45304 -22.95857,22.2454 -47.17025,17.40476 -24.21167,-4.84067 -38.05674,-21.37527 -36.21699,-35.8283 0.91986,-7.22651 2.36852,-11.8939 10.90466,-15.04354 8.53614,-3.14963 19.86875,-3.88756 31.9746,-1.46724 12.10585,2.42034 22.69278,7.54066 30.02327,13.86252 3.66525,3.16094 6.02802,6.91637 8.33624,10.19667 2.51518,3.5744 2.60841,7.26189 2.14847,10.87513 z"
             id="path3416"
             inkscape:connector-curvature="0" />
          <path
             inkscape:connector-curvature="0"
             id="path3419"
             d="m 515.30437,631.62243 c -1.83973,14.45303 -28.3223,22.96056 -52.53397,18.1199 -12.10584,-2.42033 -12.85928,-3.11559 -19.11704,-9.66095 -6.25776,-6.54536 -8.36513,-17.86808 -7.44526,-25.09459 0.91986,-7.22653 -1.92245,-13.68182 6.61369,-16.83146 8.53613,-3.14964 19.86876,-3.88756 31.97459,-1.46723 24.21169,4.84066 42.34772,20.4813 40.50799,34.93433 z"
             style="display:inline;fill:#00695c;fill-opacity:1;stroke-width:0.353987"
             sodipodi:nodetypes="sssssss" />
          <path
             sodipodi:nodetypes="ssssssssssss"
             inkscape:connector-curvature="0"
             id="path3336"
             d="m 445.52222,535.11113 c -1.04731,15.32512 -18.55003,26.61048 -39.09344,25.20656 -10.2717,-0.70196 -19.1059,-3.81121 -25.49407,-9.29272 -1.59705,-1.37039 -3.24668,-2.78631 -4.59333,-4.3223 -1.34665,-1.53599 -3.36901,-4.80807 -3.15483,-6.68619 0.12117,-1.06267 -0.89807,0.33228 22.12529,0.59981 8.42278,0.0979 14.62624,-1.47613 14.45619,-3.50324 -0.20111,-2.39775 -3.21931,-2.8512 -10.52083,-3.08466 -26.20106,-0.83772 -24.22632,-0.61232 -26.20106,-0.83772 -2.30815,-0.26347 -1.96831,-1.38453 -1.85814,-3.90677 0.67022,-15.34625 18.48999,-25.86728 39.0334,-24.46336 20.54341,1.40392 36.34813,14.96548 35.30082,30.29059 z"
             style="fill:#00897b;fill-opacity:1;stroke-width:0.353987" />
          <path
             sodipodi:open="true"
             d="m 429.17613,521.38245 a 4.6470151,4.5512671 0 0 1 -4.61947,4.55118 4.6470151,4.5512671 0 0 1 -4.67423,-4.49723 4.6470151,4.5512671 0 0 1 4.56406,-4.6045 4.6470151,4.5512671 0 0 1 4.72833,4.44265"
             sodipodi:end="6.2594762"
             sodipodi:start="0"
             sodipodi:ry="4.5512671"
             sodipodi:rx="4.6470151"
             sodipodi:cy="521.38245"
             sodipodi:cx="424.52911"
             sodipodi:type="arc"
             id="path4138"
             style="fill:#e0f7fa;fill-opacity:1;stroke-width:0.353987"
             sodipodi:arc-type="arc" />
          <path
             sodipodi:nodetypes="cccscccc"
             inkscape:connector-curvature="0"
             id="rect4142"
             d="m 430.26791,534.53418 15.28721,-0.91443 c 0.0546,16.84664 0.97355,43.93123 6.68282,62.08548 0,0 10.08752,4.23645 10.61466,21.08295 0.2533,8.09487 -8.1134,22.81211 -8.1134,22.81211 l 0.46115,17.81093 -19.04225,-0.0522 z"
             style="fill:#00897b;fill-opacity:1;stroke-width:0.35398" />
          <path
             inkscape:connector-curvature="0"
             id="path4146"
             d="m 522.09841,629.65572 a 44.766044,26.279866 13.44805 0 1 -47.17025,17.40474 44.766044,26.279866 13.44805 0 1 -40.50797,-34.93432 44.766044,26.279866 13.44805 0 1 47.17025,-17.40474 44.766044,26.279866 13.44805 0 1 40.50797,34.93432 z"
             style="fill:#00897b;fill-opacity:1;stroke-width:0.353987" />
          <rect
             y="637.69257"
             x="504.45078"
             height="19.975019"
             width="16.034168"
             id="rect4150"
             style="fill:#00897b;fill-opacity:1;stroke-width:0.353987" />
          <path
             sodipodi:nodetypes="sssss"
             inkscape:connector-curvature="0"
             id="path4154"
             d="m 557.23755,656.60085 c 6.57416,1.00533 -9.31169,3.03272 -25.4901,-2.37614 -16.17842,-5.40887 -36.53599,-24.67117 -33.67051,-30.67277 2.86549,-6.00161 17.06294,-18.59378 23.05981,-1.94024 3.27004,9.08103 20.00268,32.52742 36.1008,34.98915 z"
             style="fill:#00897b;fill-opacity:1;stroke-width:0.352652" />
        </g>
      </g>
    </g>
  </g>
</svg>
