<?xml version="1.0" encoding="UTF-8"?>
<svg width="142.89mm" height="50.193mm" version="1.1" viewBox="0 0 142.89 50.193" xmlns="http://www.w3.org/2000/svg">
<g transform="translate(-.91745 -.50993)">
<g transform="matrix(.28222 0 0 .28222 .91745 .50993)">
<g transform="translate(-73.227 -491.38)">
<g transform="matrix(.9375 0 0 .9375 450.44 453.92)" stroke="#000" stroke-linejoin="round" stroke-width="25" aria-label="Dyno Robotics">
<path d="m-369.65 133.9q-9.1733 0-19.52-1.28v-78.827q7.04-0.53333 12.267-0.85333 5.2267-0.32 9.3867-0.32 10.667 0 18.133 2.3467 7.5733 2.24 12.373 7.1467 4.8 4.9067 7.04 12.587 2.24 7.68 2.24 18.453 0 10.88-2.3467 18.667-2.3467 7.68-7.36 12.587-5.0133 4.9067-13.013 7.2533-7.8933 2.24-19.2 2.24zm5.76-13.333q5.3333 0 8.96-1.3867 3.7333-1.3867 5.9733-4.5867t3.2-8.4267q1.0667-5.3333 1.0667-13.12 0-7.68-1.0667-12.907-0.96-5.2267-3.3067-8.4267-2.3467-3.2-6.1867-4.5867-3.84-1.3867-9.4933-1.3867-4.0533 0-8.2133 0.64v53.547q2.7733 0.32 4.9067 0.53334 2.1333 0.10666 4.16 0.10666z"/>
<path d="m-309.52 153.1v-0.96l6.9333-19.947-20.907-55.893v-1.3867h16.64l10.133 32.747 1.92 8.5333h0.96l1.92-8.5333 10.24-32.747h16.533v1.3867l-28.693 79.68z"/>
<path d="m-258.99 74.917h13.547l0.96 6.2933h0.53333q3.52-2.0267 6.2933-3.4133 2.7733-1.4933 5.12-2.3467 2.4533-0.85333 4.5867-1.1733 2.24-0.42667 4.48-0.42667 6.72 0 10.347 4.0533 3.6267 4.0533 3.6267 11.52v43.093h-16.107v-37.653q0-4.0533-1.4933-5.76-1.3867-1.7067-4.16-1.7067-2.4533 0-5.5467 1.0667-2.9867 0.96-6.08 2.6667v41.387h-16.107z"/>
<path d="m-173.84 133.58q-13.12 0-19.947-7.5733-6.8267-7.5733-6.8267-22.293t6.8267-22.293q6.8267-7.5733 19.947-7.5733 13.227 0 19.947 7.5733 6.8267 7.5733 6.8267 22.293t-6.8267 22.293q-6.72 7.5733-19.947 7.5733zm0-12.373q2.9867 0 5.0133-0.85333t3.3067-2.7733q1.28-2.0267 1.8133-5.3333 0.53333-3.4133 0.53333-8.5333 0-5.12-0.53333-8.4267-0.53333-3.4133-1.8133-5.3333-1.28-2.0267-3.3067-2.88-2.0267-0.85333-5.0133-0.85333-2.9867 0-5.0133 0.85333-2.0267 0.85333-3.3067 2.88-1.1733 1.92-1.7067 5.3333-0.53333 3.3067-0.53333 8.4267 0 5.12 0.53333 8.5333 0.53333 3.3067 1.7067 5.3333 1.28 1.92 3.3067 2.7733 2.0267 0.85333 5.0133 0.85333z"/>
<path d="m-364.51 191.6q-1.248 0.096-2.496 0.192-1.248 0-2.592 0-0.384 0-1.152 0-0.672 0-1.536 0t-1.632 0q-0.768-0.096-1.152-0.096v24.384h-14.784v-70.56q4.512-0.768 9.216-1.056 4.704-0.384 9.504-0.384 16.992 0 24.672 5.76 7.68 5.664 7.68 18.336 0 15.552-12.672 20.832l14.88 27.072h-15.84zm-4.128-11.232q4.128 0 6.912-0.672t4.512-2.112 2.496-3.744 0.768-5.664-0.768-5.664q-0.768-2.4-2.496-3.84t-4.512-2.016q-2.784-0.672-6.816-0.672-1.344 0-3.264 0.192-1.824 0.192-3.264 0.384v23.328q1.344 0.192 3.072 0.384 1.728 0.096 3.36 0.096z"/>
<path d="m-309.3 217.04q-11.808 0-17.952-6.816t-6.144-20.064 6.144-20.064 17.952-6.816q11.904 0 17.952 6.816 6.144 6.816 6.144 20.064t-6.144 20.064q-6.048 6.816-17.952 6.816zm0-11.136q2.688 0 4.512-0.768t2.976-2.496q1.152-1.824 1.632-4.8 0.48-3.072 0.48-7.68t-0.48-7.584q-0.48-3.072-1.632-4.8-1.152-1.824-2.976-2.592t-4.512-0.768-4.512 0.768-2.976 2.592q-1.056 1.728-1.536 4.8-0.48 2.976-0.48 7.584t0.48 7.68q0.48 2.976 1.536 4.8 1.152 1.728 2.976 2.496t4.512 0.768z"/>
<path d="m-256.17 217.04q-4.416 0-9.408-0.864-4.992-0.768-11.52-2.592v-75.072h14.496v31.008q4.8-6.144 13.824-6.144 18.336 0 18.336 25.248 0 6.432-1.536 11.616-1.44 5.184-4.608 8.928-3.168 3.648-8.064 5.76-4.8 2.016-11.52 2.112zm0.192-9.792q2.976 0 5.088-0.768 2.112-0.864 3.36-2.88t1.824-5.28 0.576-8.16q0-4.704-0.48-7.776-0.384-3.168-1.44-4.992-0.96-1.92-2.592-2.688t-4.032-0.768q-4.32 0-6.624 3.168-2.304 3.072-2.304 10.944v18.24q1.344 0.48 2.976 0.768 1.728 0.192 3.648 0.192z"/>
<path d="m-200.37 217.04q-11.808 0-17.952-6.816t-6.144-20.064 6.144-20.064 17.952-6.816q11.904 0 17.952 6.816 6.144 6.816 6.144 20.064t-6.144 20.064q-6.048 6.816-17.952 6.816zm0-11.136q2.688 0 4.512-0.768t2.976-2.496q1.152-1.824 1.632-4.8 0.48-3.072 0.48-7.68t-0.48-7.584q-0.48-3.072-1.632-4.8-1.152-1.824-2.976-2.592t-4.512-0.768-4.512 0.768-2.976 2.592q-1.056 1.728-1.536 4.8-0.48 2.976-0.48 7.584t0.48 7.68q0.48 2.976 1.536 4.8 1.152 1.728 2.976 2.496t4.512 0.768z"/>
<path d="m-147.32 216.85q-8.352 0-12.576-3.84-4.128-3.936-4.128-11.424v-25.152h-8.352v-12.192h9.12l2.016-14.688 11.52-1.344v16.032h11.52v12.192h-11.424v21.792q0 4.224 1.536 5.952t4.8 1.728q2.4 0 5.184-0.864v10.752q-4.224 1.056-9.216 1.056z"/>
<path d="m-123.64 156.37q-4.32 0-6.24-1.824-1.824-1.92-1.824-6.048t1.824-5.952q1.92-1.92 6.24-1.92t6.144 1.92q1.92 1.92 1.92 5.952t-1.92 5.952q-1.824 1.92-6.144 1.92zm-7.296 7.872h14.496v51.84h-14.496z"/>
<path d="m-83.06 216.94q-12.576 0-18.816-6.432-6.24-6.528-6.24-20.352 0-13.728 6.24-20.256t18.816-6.528q3.072 0 6.048 0.384 3.072 0.288 5.568 1.056v11.424q-2.784-0.48-5.376-0.768-2.496-0.288-4.704-0.288-6.432 0-9.216 3.456-2.688 3.36-2.688 11.424t2.688 11.616q2.784 3.552 9.12 3.552 2.784 0 5.184-0.192 2.4-0.288 4.992-0.864v11.232q-2.208 0.768-5.376 1.152-3.072 0.384-6.24 0.384z"/>
<path d="m-47.994 217.04q-3.84 0-8.16-0.672-4.224-0.576-8.64-1.728v-10.56q3.936 1.152 8.16 1.92 4.32 0.672 8.16 0.672 7.488 0 7.488-5.088 0-2.496-1.728-3.744-1.728-1.344-5.376-2.016-2.592-0.384-5.472-0.96t-5.376-2.112q-2.4-1.632-4.032-4.704t-1.632-8.352q0-7.776 4.992-12.096 4.992-4.416 14.016-4.416 3.456 0 7.296 0.48 3.936 0.48 8.736 1.44l-0.096 10.752q-4.8-1.056-7.872-1.44-3.072-0.48-5.568-0.48-3.936 0-5.952 1.344-1.92 1.344-1.92 3.84 0 2.784 1.92 3.936 2.016 1.056 5.568 1.728 3.072 0.48 5.952 1.344 2.976 0.864 5.28 2.592t3.648 4.608q1.44 2.784 1.44 7.2 0 7.968-5.376 12.288-5.376 4.224-15.456 4.224z"/>
</g>
<path d="m90.534 512.65 0.49984 135.96 319.4 2.999-3.9987-37.488-100.47-0.99968-9.497-39.987 9.497-17.494-12.996-24.492-24.492 9.4969-109.96-1.4995-29.99-18.494-16.995-11.996z"/>
<g transform="matrix(.9375 0 0 .9375 450.44 453.92)" fill="#fff" aria-label="Dyno Robotics">
<path d="m-369.65 133.9q-9.1733 0-19.52-1.28v-78.827q7.04-0.53333 12.267-0.85333 5.2267-0.32 9.3867-0.32 10.667 0 18.133 2.3467 7.5733 2.24 12.373 7.1467 4.8 4.9067 7.04 12.587 2.24 7.68 2.24 18.453 0 10.88-2.3467 18.667-2.3467 7.68-7.36 12.587-5.0133 4.9067-13.013 7.2533-7.8933 2.24-19.2 2.24zm5.76-13.333q5.3333 0 8.96-1.3867 3.7333-1.3867 5.9733-4.5867t3.2-8.4267q1.0667-5.3333 1.0667-13.12 0-7.68-1.0667-12.907-0.96-5.2267-3.3067-8.4267-2.3467-3.2-6.1867-4.5867-3.84-1.3867-9.4933-1.3867-4.0533 0-8.2133 0.64v53.547q2.7733 0.32 4.9067 0.53334 2.1333 0.10666 4.16 0.10666z"/>
<path d="m-309.52 153.1v-0.96l6.9333-19.947-20.907-55.893v-1.3867h16.64l10.133 32.747 1.92 8.5333h0.96l1.92-8.5333 10.24-32.747h16.533v1.3867l-28.693 79.68z"/>
<path d="m-258.99 74.917h13.547l0.96 6.2933h0.53333q3.52-2.0267 6.2933-3.4133 2.7733-1.4933 5.12-2.3467 2.4533-0.85333 4.5867-1.1733 2.24-0.42667 4.48-0.42667 6.72 0 10.347 4.0533 3.6267 4.0533 3.6267 11.52v43.093h-16.107v-37.653q0-4.0533-1.4933-5.76-1.3867-1.7067-4.16-1.7067-2.4533 0-5.5467 1.0667-2.9867 0.96-6.08 2.6667v41.387h-16.107z"/>
<path d="m-173.84 133.58q-13.12 0-19.947-7.5733-6.8267-7.5733-6.8267-22.293t6.8267-22.293q6.8267-7.5733 19.947-7.5733 13.227 0 19.947 7.5733 6.8267 7.5733 6.8267 22.293t-6.8267 22.293q-6.72 7.5733-19.947 7.5733zm0-12.373q2.9867 0 5.0133-0.85333t3.3067-2.7733q1.28-2.0267 1.8133-5.3333 0.53333-3.4133 0.53333-8.5333 0-5.12-0.53333-8.4267-0.53333-3.4133-1.8133-5.3333-1.28-2.0267-3.3067-2.88-2.0267-0.85333-5.0133-0.85333-2.9867 0-5.0133 0.85333-2.0267 0.85333-3.3067 2.88-1.1733 1.92-1.7067 5.3333-0.53333 3.3067-0.53333 8.4267 0 5.12 0.53333 8.5333 0.53333 3.3067 1.7067 5.3333 1.28 1.92 3.3067 2.7733 2.0267 0.85333 5.0133 0.85333z"/>
<path d="m-364.51 191.6q-1.248 0.096-2.496 0.192-1.248 0-2.592 0-0.384 0-1.152 0-0.672 0-1.536 0t-1.632 0q-0.768-0.096-1.152-0.096v24.384h-14.784v-70.56q4.512-0.768 9.216-1.056 4.704-0.384 9.504-0.384 16.992 0 24.672 5.76 7.68 5.664 7.68 18.336 0 15.552-12.672 20.832l14.88 27.072h-15.84zm-4.128-11.232q4.128 0 6.912-0.672t4.512-2.112 2.496-3.744 0.768-5.664-0.768-5.664q-0.768-2.4-2.496-3.84t-4.512-2.016q-2.784-0.672-6.816-0.672-1.344 0-3.264 0.192-1.824 0.192-3.264 0.384v23.328q1.344 0.192 3.072 0.384 1.728 0.096 3.36 0.096z"/>
<path d="m-309.3 217.04q-11.808 0-17.952-6.816t-6.144-20.064 6.144-20.064 17.952-6.816q11.904 0 17.952 6.816 6.144 6.816 6.144 20.064t-6.144 20.064q-6.048 6.816-17.952 6.816zm0-11.136q2.688 0 4.512-0.768t2.976-2.496q1.152-1.824 1.632-4.8 0.48-3.072 0.48-7.68t-0.48-7.584q-0.48-3.072-1.632-4.8-1.152-1.824-2.976-2.592t-4.512-0.768-4.512 0.768-2.976 2.592q-1.056 1.728-1.536 4.8-0.48 2.976-0.48 7.584t0.48 7.68q0.48 2.976 1.536 4.8 1.152 1.728 2.976 2.496t4.512 0.768z"/>
<path d="m-256.17 217.04q-4.416 0-9.408-0.864-4.992-0.768-11.52-2.592v-75.072h14.496v31.008q4.8-6.144 13.824-6.144 18.336 0 18.336 25.248 0 6.432-1.536 11.616-1.44 5.184-4.608 8.928-3.168 3.648-8.064 5.76-4.8 2.016-11.52 2.112zm0.192-9.792q2.976 0 5.088-0.768 2.112-0.864 3.36-2.88t1.824-5.28 0.576-8.16q0-4.704-0.48-7.776-0.384-3.168-1.44-4.992-0.96-1.92-2.592-2.688t-4.032-0.768q-4.32 0-6.624 3.168-2.304 3.072-2.304 10.944v18.24q1.344 0.48 2.976 0.768 1.728 0.192 3.648 0.192z"/>
<path d="m-200.37 217.04q-11.808 0-17.952-6.816t-6.144-20.064 6.144-20.064 17.952-6.816q11.904 0 17.952 6.816 6.144 6.816 6.144 20.064t-6.144 20.064q-6.048 6.816-17.952 6.816zm0-11.136q2.688 0 4.512-0.768t2.976-2.496q1.152-1.824 1.632-4.8 0.48-3.072 0.48-7.68t-0.48-7.584q-0.48-3.072-1.632-4.8-1.152-1.824-2.976-2.592t-4.512-0.768-4.512 0.768-2.976 2.592q-1.056 1.728-1.536 4.8-0.48 2.976-0.48 7.584t0.48 7.68q0.48 2.976 1.536 4.8 1.152 1.728 2.976 2.496t4.512 0.768z"/>
<path d="m-147.32 216.85q-8.352 0-12.576-3.84-4.128-3.936-4.128-11.424v-25.152h-8.352v-12.192h9.12l2.016-14.688 11.52-1.344v16.032h11.52v12.192h-11.424v21.792q0 4.224 1.536 5.952t4.8 1.728q2.4 0 5.184-0.864v10.752q-4.224 1.056-9.216 1.056z"/>
<path d="m-123.64 156.37q-4.32 0-6.24-1.824-1.824-1.92-1.824-6.048t1.824-5.952q1.92-1.92 6.24-1.92t6.144 1.92q1.92 1.92 1.92 5.952t-1.92 5.952q-1.824 1.92-6.144 1.92zm-7.296 7.872h14.496v51.84h-14.496z"/>
<path d="m-83.06 216.94q-12.576 0-18.816-6.432-6.24-6.528-6.24-20.352 0-13.728 6.24-20.256t18.816-6.528q3.072 0 6.048 0.384 3.072 0.288 5.568 1.056v11.424q-2.784-0.48-5.376-0.768-2.496-0.288-4.704-0.288-6.432 0-9.216 3.456-2.688 3.36-2.688 11.424t2.688 11.616q2.784 3.552 9.12 3.552 2.784 0 5.184-0.192 2.4-0.288 4.992-0.864v11.232q-2.208 0.768-5.376 1.152-3.072 0.384-6.24 0.384z"/>
<path d="m-47.994 217.04q-3.84 0-8.16-0.672-4.224-0.576-8.64-1.728v-10.56q3.936 1.152 8.16 1.92 4.32 0.672 8.16 0.672 7.488 0 7.488-5.088 0-2.496-1.728-3.744-1.728-1.344-5.376-2.016-2.592-0.384-5.472-0.96t-5.376-2.112q-2.4-1.632-4.032-4.704t-1.632-8.352q0-7.776 4.992-12.096 4.992-4.416 14.016-4.416 3.456 0 7.296 0.48 3.936 0.48 8.736 1.44l-0.096 10.752q-4.8-1.056-7.872-1.44-3.072-0.48-5.568-0.48-3.936 0-5.952 1.344-1.92 1.344-1.92 3.84 0 2.784 1.92 3.936 2.016 1.056 5.568 1.728 3.072 0.48 5.952 1.344 2.976 0.864 5.28 2.592t3.648 4.608q1.44 2.784 1.44 7.2 0 7.968-5.376 12.288-5.376 4.224-15.456 4.224z"/>
</g>
</g>
<g transform="translate(-73.227 -491.38)">
<path d="m414.4 503.09c-8.8952 0.0258-17.094 2.2697-23.381 6.1385-7.1853 4.4214-11.878 10.979-12.218 18.763-0.0551 1.2617-0.18075 2.1788 0.0294 2.8749 0.10509 0.34804 0.30863 0.63963 0.63539 0.84351 0.32675 0.20388 0.76607 0.32621 1.361 0.39413 1.9862 0.22671 0.015 3e-3 26.368 0.84536 3.6691 0.11731 6.26 0.29279 7.9304 0.72932 0.83522 0.21826 1.4359 0.50079 1.8325 0.85824 0.3966 0.35744 0.59893 0.78524 0.64645 1.3518 0.0351 0.4183-0.25802 0.84102-0.92454 1.2579-0.66654 0.41688-1.6812 0.80148-2.9689 1.1179-2.5753 0.63289-6.2421 1.005-10.467 0.95585-11.575-0.13452-17.102-0.55264-19.751-0.803-1.3245-0.12516-1.9107-0.21224-2.2414-0.19522-0.0827 4e-3 -0.15543 0.0141-0.22468 0.0461-0.0692 0.032-0.12927 0.0962-0.1584 0.16023-0.0582 0.12798-0.0433 0.22437-0.0571 0.34624-0.11614 1.0185 0.35822 2.3249 1.0166 3.5914s1.5096 2.4828 2.199 3.2691c1.3662 1.5583 3.0311 2.9883 4.6375 4.3667 6.4616 5.5445 15.387 8.6811 25.747 9.3891 9.336 0.63801 17.951-1.4211 24.815-5.1845l4.9284 102.79 19.504 0.0516-0.24494-9.4757c1.9666 0.55762 4.3506 1.0987 7.6432 1.757 12.208 2.4408 24.982 1.5194 34.95-1.8399 0.13463-0.0454 0.24026-0.11212 0.37388-0.15838 2.2789-0.34427 4.4151-0.83375 6.4571-1.4366v11.411h16.483v-8.8918c3.7058 2.2637 7.492 4.2145 11.093 5.4184 8.1592 2.7278 16.236 3.5805 21.456 3.6245 2.61 0.022 4.4916-0.15116 5.3631-0.41439 0.21788-0.0658 0.37524-0.12612 0.48805-0.24127 0.0564-0.0575 0.10415-0.14595 0.0957-0.24309-8e-3 -0.0971-0.0653-0.17307-0.12708-0.22655-0.12368-0.10692-0.29733-0.17447-0.55067-0.24679-0.25333-0.0723-0.58561-0.14048-1.0037-0.20442-8.0219-1.2267-16.26-7.7118-22.889-15.043-6.6286-7.3315-11.654-15.514-13.283-20.036-0.16209-0.45012-0.38972-0.66262-0.56356-1.0719-0.57148-1.3949-1.3002-2.7599-2.1732-4.1181-0.2989-0.61332-0.56725-1.2271-0.99454-1.8344-2.3178-3.2939-4.7042-7.0877-8.4148-10.288-7.4013-6.3829-18.074-11.544-30.278-13.984-10.418-2.0828-20.156-1.7338-28.182 0.35914-4.526-17.946-5.3534-42.001-5.4036-57.506l-2e-3 -0.1897-0.14365 9e-3c-0.0861-7.1276-3.5781-13.807-9.5586-18.938-6.4582-5.5416-15.634-9.316-26.001-10.025-1.2956-0.0885-2.5803-0.13077-3.851-0.12709z" color="#000000" color-rendering="auto" dominant-baseline="auto" image-rendering="auto" shape-rendering="auto" solid-color="#000000" stroke="#000" stroke-linejoin="round" stroke-width="23.438" style="font-feature-settings:normal;font-variant-alternates:normal;font-variant-caps:normal;font-variant-ligatures:normal;font-variant-numeric:normal;font-variant-position:normal;isolation:auto;mix-blend-mode:normal;shape-padding:0;text-decoration-color:#000000;text-decoration-line:none;text-decoration-style:solid;text-indent:0;text-orientation:mixed;text-transform:none;white-space:normal"/>
<g transform="matrix(1.0058 0 0 1.0058 5.623 -4.364)">
<path d="m519.6 625.54c-1.8397 14.453-22.959 22.245-47.17 17.405-24.212-4.8407-38.057-21.375-36.217-35.828 0.91986-7.2265 2.3685-11.894 10.905-15.044 8.5361-3.1496 19.869-3.8876 31.975-1.4672 12.106 2.4203 22.693 7.5407 30.023 13.863 3.6652 3.1609 6.028 6.9164 8.3362 10.197 2.5152 3.5744 2.6084 7.2619 2.1485 10.875z" fill="#26a69a" stroke-width=".35399"/>
<path d="m515.3 631.62c-1.8397 14.453-28.322 22.961-52.534 18.12-12.106-2.4203-12.859-3.1156-19.117-9.661s-8.3651-17.868-7.4453-25.095c0.91986-7.2265-1.9224-13.682 6.6137-16.831 8.5361-3.1496 19.869-3.8876 31.975-1.4672 24.212 4.8407 42.348 20.481 40.508 34.934z" fill="#00695c" stroke-width=".35399"/>
<path d="m445.52 535.11c-1.0473 15.325-18.55 26.61-39.093 25.207-10.272-0.70196-19.106-3.8112-25.494-9.2927-1.597-1.3704-3.2467-2.7863-4.5933-4.3223s-3.369-4.8081-3.1548-6.6862c0.12117-1.0627-0.89807 0.33228 22.125 0.59981 8.4228 0.0979 14.626-1.4761 14.456-3.5032-0.20111-2.3978-3.2193-2.8512-10.521-3.0847-26.201-0.83772-24.226-0.61232-26.201-0.83772-2.3082-0.26347-1.9683-1.3845-1.8581-3.9068 0.67022-15.346 18.49-25.867 39.033-24.463s36.348 14.965 35.301 30.291z" fill="#00897b" stroke-width=".35399"/>
<path d="m429.18 521.38a4.647 4.5513 0 0 1-4.6195 4.5512 4.647 4.5513 0 0 1-4.6742-4.4972 4.647 4.5513 0 0 1 4.5641-4.6045 4.647 4.5513 0 0 1 4.7283 4.4426" fill="#e0f7fa" stroke-width=".35399"/>
<path d="m430.27 534.53 15.287-0.91443c0.0546 16.847 0.97355 43.931 6.6828 62.085 0 0 10.088 4.2364 10.615 21.083 0.2533 8.0949-8.1134 22.812-8.1134 22.812l0.46115 17.811-19.042-0.0522z" fill="#00897b" stroke-width=".35398"/>
<path d="m522.1 629.66a44.766 26.28 13.448 0 1-47.17 17.405 44.766 26.28 13.448 0 1-40.508-34.934 44.766 26.28 13.448 0 1 47.17-17.405 44.766 26.28 13.448 0 1 40.508 34.934z" fill="#00897b" stroke-width=".35399"/>
<rect x="504.45" y="637.69" width="16.034" height="19.975" fill="#00897b" stroke-width=".35399"/>
<path d="m557.24 656.6c6.5742 1.0053-9.3117 3.0327-25.49-2.3761-16.178-5.4089-36.536-24.671-33.671-30.673 2.8655-6.0016 17.063-18.594 23.06-1.9402 3.27 9.081 20.003 32.527 36.101 34.989z" fill="#00897b" stroke-width=".35265"/>
</g>
</g>
</g>
</g>
</svg>
