<?xml version="1.0" encoding="UTF-8" standalone="no"?>
<!-- Created with Inkscape (http://www.inkscape.org/) -->

<svg
   width="38.615936mm"
   height="31.531031mm"
   viewBox="0 0 38.615936 31.531031"
   version="1.1"
   id="svg5"
   inkscape:version="1.1.2 (b8e25be833, 2022-02-05)"
   sodipodi:docname="favicon.svg"
   xmlns:inkscape="http://www.inkscape.org/namespaces/inkscape"
   xmlns:sodipodi="http://sodipodi.sourceforge.net/DTD/sodipodi-0.dtd"
   xmlns="http://www.w3.org/2000/svg"
   xmlns:svg="http://www.w3.org/2000/svg">
  <sodipodi:namedview
     id="namedview7"
     pagecolor="#ffffff"
     bordercolor="#666666"
     borderopacity="1.0"
     inkscape:pageshadow="2"
     inkscape:pageopacity="0.0"
     inkscape:pagecheckerboard="0"
     inkscape:document-units="mm"
     showgrid="false"
     lock-margins="false"
     fit-margin-top="0"
     fit-margin-left="0"
     fit-margin-right="0"
     fit-margin-bottom="0"
     inkscape:zoom="1.1064394"
     inkscape:cx="210.13352"
     inkscape:cy="164.94351"
     inkscape:window-width="1368"
     inkscape:window-height="850"
     inkscape:window-x="-6"
     inkscape:window-y="-6"
     inkscape:window-maximized="1"
     inkscape:current-layer="g857" />
  <defs
     id="defs2">
    <style
       id="style2">.cls-1{fill:#fff;}</style>
  </defs>
  <g
     inkscape:label="Layer 1"
     inkscape:groupmode="layer"
     id="layer1"
     transform="translate(-1.2765087,-1.2311132)">
    <g
       id="g857"
       transform="matrix(0.26458333,0,0,0.26458333,67.324403,104.26792)">
      <path
         class="cls-1"
         d="m -133.33984,-270.40363 h -12.54 v -8.59 c -2,0.4 -3.92,0.62 -5.73,1.17 -10.42,3.18 -20.85,3 -31.32,0.31 -0.42,-0.11 -0.84,-0.18 -1.32,-0.29 v 7.14 h -14.75 c -1.27,-26.4 -2.53,-52.73 -3.81,-79.2 l -1.19,0.51 c -10.95,5 -21.85,4.51 -32.66,-0.39 a 25.79,25.79 0 0 1 -8.79,-6.85 15.91,15.91 0 0 1 -2.37,-4.15 c -0.49,-1.13 -0.16,-1.36 1.08,-1.31 5.82,0.23 11.65,0.54 17.48,0.6 a 46.87,46.87 0 0 0 7,-0.81 4,4 0 0 0 1.67,-0.65 2,2 0 0 0 0.89,-1.24 1.65,1.65 0 0 0 -0.88,-1.27 18.49,18.49 0 0 0 -4.33,-0.87 c -6.19,-0.26 -12.38,-0.4 -18.57,-0.59 -1.53,0 -3.06,-0.12 -4.58,-0.2 -1.05,-0.06 -1.56,-0.56 -1.57,-1.7 0,-6.22 2.76,-10.95 7.63,-14.58 a 30.34,30.34 0 0 1 14.62,-5.65 37.52,37.52 0 0 1 23.05,3.9 c 5.06,2.72 9.1,6.46 11.41,11.85 a 22,22 0 0 1 1.32,8.76 224.61,224.61 0 0 0 2.19,32.36 c 0.49,3.24 1.19,6.46 1.77,9.55 3.33,-0.37 6.43,-0.94 9.54,-1 12.93,-0.3 24.76,3.15 35,11.16 a 34.44,34.44 0 0 1 10.22,14.09 55.91,55.91 0 0 0 10,15.12 c 3.46,3.92 7.25,7.47 12,9.82 a 50.63,50.63 0 0 0 6.1,2.15 c 0.33,0.12 0.68,0.18 1.1,0.29 -1.66,1.14 -8.75,0.85 -15.25,-0.52 a 43.11,43.11 0 0 1 -14.44,-5.77 z m -71.06,-106 a 3.51,3.51 0 0 0 -7,-0.07 3.51,3.51 0 1 0 7,0.07 z"
         id="path8"
         style="fill:#000000" />
    </g>
  </g>
</svg>
